<?xml version="1.0" encoding="UTF-8"?>
<svg width="40px" height="14px" viewBox="0 0 40 14" version="1.1" xmlns="http://www.w3.org/2000/svg" xmlns:xlink="http://www.w3.org/1999/xlink">
    <title>形状结合</title>
    <defs>
        <linearGradient x1="0%" y1="50%" x2="100%" y2="50%" id="linearGradient-1">
            <stop stop-color="#CDB895" offset="0%"></stop>
            <stop stop-color="#F1E0CA" offset="10.8188199%"></stop>
            <stop stop-color="#F4E7D7" offset="18.9496072%"></stop>
            <stop stop-color="#D4C8BC" offset="31.772855%"></stop>
            <stop stop-color="#CBBA9E" offset="46.5538503%"></stop>
            <stop stop-color="#A9896E" offset="56.6078766%"></stop>
            <stop stop-color="#F1CD8E" offset="59.8717127%"></stop>
            <stop stop-color="#F5D6B5" offset="83.7151186%"></stop>
            <stop stop-color="#9D8064" offset="100%"></stop>
        </linearGradient>
    </defs>
    <g id="页面-1" stroke="none" stroke-width="1" fill="none" fill-rule="evenodd">
        <g id="交易页面" transform="translate(-896, -9)" fill="url(#linearGradient-1)">
            <g id="编组-14" transform="translate(896, 8)">
                <path d="M6.92390514,1.00005127 C10.521262,1.00005127 12.4427919,2.58324956 12.4427919,4.76399242 C12.4427919,6.5943091 11.1559097,7.6809635 9.5743879,8.06035687 C10.8819152,8.35720655 12.1231741,9.1854633 12.1231741,11.6299871 L12.1231741,12.2475267 C12.1231741,13.2078021 12.0800996,14.4008405 12.3586819,14.9999231 L9.87820322,14.9999231 C9.61014373,14.4815897 9.57690548,13.6118205 9.57287944,12.5257333 L9.57234887,11.6848453 C9.57234887,9.77916266 8.9175657,8.939883 5.87253083,8.939883 L2.5510801,8.93998553 L2.5510801,14.9997693 L0.000101951445,14.9998206 L0.000101951445,1.00071777 L6.92390514,1.00005127 Z M2.5510801,2.72229211 L2.5510801,7.21759089 L6.18271811,7.2177447 C8.71595671,7.2177447 9.8081116,6.44614061 9.8081116,4.94907486 C9.8081116,3.52686241 8.66166757,2.72244592 6.40956008,2.72244592 L2.5510801,2.72229211 Z M26.4318049,1.00010254 L26.4318049,2.75710401 L20.903,2.757 L20.90387,14.9997693 L18.3211849,14.9997693 L18.321,2.757 L12.79325,2.75710401 L12.79325,1.00010254 L26.4318049,1.00010254 Z M28.2941775,10.6581248 L26.6512299,14.9998718 L23.711205,14.9998718 L25.6059727,10.6581248 L28.2941775,10.6581248 Z M37.3986712,10.658253 L39.375,15 L36.510929,14.9997437 L34.8990766,11.1530025 L34.8215935,10.9830445 L34.7861653,10.8838382 L34.6916054,10.658253 L37.3986712,10.658253 Z M33.002066,1 L34.3781556,4.02284234 L36.8514978,9.45585798 L34.1877613,9.45585798 L32.2960522,4.94158953 C31.9797478,4.21510249 31.7340448,3.63293874 31.551042,3.16382396 L31.3300622,2.63651844 C31.200329,3.01206661 31.0170713,3.492717 30.7894647,4.06513957 L28.7491613,9.45585798 L26.1307933,9.45585798 L29.1072658,2.63651844 L29.8214357,1 L33.002066,1 Z" id="形状结合"></path>
            </g>
        </g>
    </g>
</svg>